<svg xmlns="http://www.w3.org/2000/svg" xmlns:xlink="http://www.w3.org/1999/xlink" width="924" zoomAndPan="magnify" viewBox="0 0 693 336.749987" height="449" preserveAspectRatio="xMidYMid meet" version="1.0"><defs><g/></defs><g fill="#000000" fill-opacity="1"><g transform="translate(-1.014117, 133.539557)"><g><path d="M 5.0625 16.929688 C 22.308594 11.550781 39.238281 1.898438 39.238281 -27.214844 L 39.238281 -86.230469 C 39.238281 -108.066406 41.929688 -109.964844 54.585938 -110.121094 C 55.535156 -110.121094 55.695312 -111.230469 54.585938 -111.230469 C 44.144531 -111.230469 41.929688 -110.753906 37.816406 -110.753906 L 27.214844 -110.753906 C 21.835938 -110.753906 18.828125 -111.230469 5.0625 -111.230469 C 3.640625 -111.230469 3.796875 -110.121094 5.0625 -110.121094 C 21.835938 -109.964844 25.472656 -108.066406 25.472656 -86.230469 L 25.472656 -23.417969 C 25.472656 0.949219 16.929688 10.285156 4.746094 15.980469 C 4.273438 16.296875 4.589844 16.929688 5.0625 16.929688 Z M 5.0625 16.929688 "/></g></g></g><g fill="#000000" fill-opacity="1"><g transform="translate(53.253214, 133.539557)"><g><path d="M 87.023438 -36.234375 C 80.0625 -18.671875 68.195312 -7.277344 50.632812 -7.277344 C 27.847656 -7.277344 16.773438 -25.949219 16.773438 -46.992188 C 16.773438 -47.941406 16.773438 -48.734375 16.929688 -49.683594 L 79.746094 -49.683594 C 80.21875 -51.738281 80.378906 -52.847656 80.378906 -54.746094 C 80.378906 -68.828125 66.769531 -81.484375 48.574219 -81.484375 C 25.316406 -81.484375 4.429688 -62.65625 4.429688 -38.921875 C 4.429688 -15.820312 20.253906 1.582031 43.828125 1.582031 C 66.453125 1.582031 80.535156 -17.246094 88.605469 -35.601562 C 89.078125 -36.550781 87.8125 -37.023438 87.023438 -36.234375 Z M 46.515625 -79.425781 C 61.390625 -79.425781 67.402344 -69.933594 67.402344 -58.699219 C 67.402344 -53.953125 65.503906 -51.421875 59.648438 -51.421875 L 17.089844 -51.421875 C 19.144531 -70.410156 34.96875 -79.425781 46.515625 -79.425781 Z M 46.515625 -79.425781 "/></g></g></g><g fill="#000000" fill-opacity="1"><g transform="translate(139.005249, 133.539557)"><g><path d="M 16.929688 0 L 27.847656 0 C 31.011719 0 32.4375 0.476562 40.347656 0.476562 C 41.296875 0.476562 41.296875 -0.632812 40.347656 -0.632812 C 28.953125 -0.792969 28.480469 -5.0625 28.480469 -17.40625 L 28.480469 -58.066406 C 38.449219 -69.933594 47.625 -73.890625 57.117188 -73.890625 C 68.195312 -73.890625 75.15625 -68.667969 75.15625 -46.199219 L 75.15625 -17.40625 C 75.15625 -5.0625 74.839844 -0.792969 63.445312 -0.632812 C 62.496094 -0.632812 62.496094 0.476562 63.445312 0.476562 C 71.359375 0.476562 72.625 0 75.945312 0 L 86.863281 0 C 90.34375 0 91.769531 0.476562 99.996094 0.476562 C 100.945312 0.476562 100.945312 -0.632812 99.996094 -0.632812 C 87.972656 -0.792969 87.65625 -5.0625 87.65625 -17.40625 L 87.65625 -47.308594 C 87.65625 -70.25 81.800781 -81.484375 63.445312 -81.484375 C 51.582031 -81.484375 37.183594 -71.992188 28.320312 -59.808594 L 28.164062 -59.808594 C 28.003906 -68.195312 26.898438 -76.738281 23.574219 -81.484375 C 23.257812 -81.800781 22.941406 -81.800781 22.625 -81.484375 C 18.828125 -78.953125 12.65625 -75.628906 5.378906 -74.363281 C 4.90625 -74.207031 4.90625 -73.574219 5.378906 -73.257812 C 15.03125 -72.148438 16.140625 -64.554688 16.140625 -53.164062 L 16.140625 -17.40625 C 16.140625 -5.0625 15.664062 -0.792969 3.796875 -0.632812 C 2.847656 -0.632812 2.847656 0.476562 3.796875 0.476562 C 12.023438 0.476562 13.449219 0 16.929688 0 Z M 16.929688 0 "/></g></g></g><g fill="#000000" fill-opacity="1"><g transform="translate(237.889086, 133.539557)"><g><path d="M 16.929688 0 L 27.847656 0 C 31.011719 0 32.4375 0.476562 40.347656 0.476562 C 41.296875 0.476562 41.296875 -0.632812 40.347656 -0.632812 C 28.953125 -0.792969 28.480469 -5.0625 28.480469 -17.40625 L 28.480469 -58.066406 C 38.449219 -69.933594 47.625 -73.890625 57.117188 -73.890625 C 68.195312 -73.890625 75.15625 -68.667969 75.15625 -46.199219 L 75.15625 -17.40625 C 75.15625 -5.0625 74.839844 -0.792969 63.445312 -0.632812 C 62.496094 -0.632812 62.496094 0.476562 63.445312 0.476562 C 71.359375 0.476562 72.625 0 75.945312 0 L 86.863281 0 C 90.34375 0 91.769531 0.476562 99.996094 0.476562 C 100.945312 0.476562 100.945312 -0.632812 99.996094 -0.632812 C 87.972656 -0.792969 87.65625 -5.0625 87.65625 -17.40625 L 87.65625 -47.308594 C 87.65625 -70.25 81.800781 -81.484375 63.445312 -81.484375 C 51.582031 -81.484375 37.183594 -71.992188 28.320312 -59.808594 L 28.164062 -59.808594 C 28.003906 -68.195312 26.898438 -76.738281 23.574219 -81.484375 C 23.257812 -81.800781 22.941406 -81.800781 22.625 -81.484375 C 18.828125 -78.953125 12.65625 -75.628906 5.378906 -74.363281 C 4.90625 -74.207031 4.90625 -73.574219 5.378906 -73.257812 C 15.03125 -72.148438 16.140625 -64.554688 16.140625 -53.164062 L 16.140625 -17.40625 C 16.140625 -5.0625 15.664062 -0.792969 3.796875 -0.632812 C 2.847656 -0.632812 2.847656 0.476562 3.796875 0.476562 C 12.023438 0.476562 13.449219 0 16.929688 0 Z M 16.929688 0 "/></g></g></g><g fill="#000000" fill-opacity="1"><g transform="translate(336.772913, 133.539557)"><g><path d="M 21.203125 -95.089844 C 26.582031 -95.089844 29.902344 -98.574219 29.902344 -103.160156 C 29.902344 -107.90625 26.105469 -111.230469 21.203125 -111.230469 C 16.140625 -111.230469 12.65625 -107.589844 12.65625 -103.160156 C 12.65625 -98.414062 16.457031 -95.089844 21.203125 -95.089844 Z M 16.773438 0 L 27.6875 0 C 31.167969 0 32.59375 0.476562 40.820312 0.476562 C 41.769531 0.476562 41.769531 -0.632812 40.820312 -0.632812 C 28.953125 -0.792969 28.480469 -5.0625 28.480469 -17.40625 L 28.480469 -80.851562 C 28.480469 -81.328125 27.847656 -81.484375 27.371094 -81.484375 C 22.308594 -78.792969 14.398438 -75.628906 5.378906 -74.363281 C 4.746094 -74.363281 4.746094 -73.574219 5.222656 -73.257812 C 13.605469 -71.992188 16.140625 -70.410156 16.140625 -53.953125 L 16.140625 -17.40625 C 16.140625 -5.0625 15.664062 -0.792969 3.796875 -0.632812 C 2.847656 -0.632812 2.847656 0.476562 3.796875 0.476562 C 12.023438 0.476562 13.449219 0 16.773438 0 Z M 16.773438 0 "/></g></g></g><g fill="#000000" fill-opacity="1"><g transform="translate(377.275571, 133.539557)"><g><path d="M 31.328125 -17.878906 L 31.328125 -77.84375 L 50.472656 -77.84375 L 51.421875 -79.585938 L 31.167969 -79.585938 C 31.011719 -84.648438 30.851562 -88.761719 30.851562 -93.984375 C 30.851562 -107.433594 34.652344 -117.402344 47.464844 -117.402344 C 49.523438 -117.402344 50.472656 -117.242188 51.582031 -116.925781 C 54.113281 -109.488281 57.433594 -102.84375 62.65625 -102.84375 C 66.136719 -102.84375 68.511719 -105.058594 68.511719 -108.066406 C 68.511719 -113.921875 59.175781 -119.300781 48.257812 -119.300781 C 34.019531 -119.300781 18.988281 -109.015625 18.988281 -79.585938 L 9.652344 -79.585938 L 8.859375 -77.84375 L 18.828125 -77.84375 L 18.828125 -17.40625 C 18.828125 -5.0625 18.511719 -0.792969 6.488281 -0.632812 C 5.539062 -0.632812 5.539062 0.476562 6.488281 0.476562 C 14.871094 0.476562 16.140625 0 19.621094 0 L 30.378906 0 C 34.652344 0 36.390625 0.476562 46.675781 0.476562 C 47.785156 0.476562 47.785156 -0.792969 46.675781 -0.792969 C 31.800781 -0.792969 31.328125 -5.222656 31.328125 -17.878906 Z M 31.328125 -17.878906 "/></g></g></g><g fill="#000000" fill-opacity="1"><g transform="translate(433.283257, 133.539557)"><g><path d="M 87.023438 -36.234375 C 80.0625 -18.671875 68.195312 -7.277344 50.632812 -7.277344 C 27.847656 -7.277344 16.773438 -25.949219 16.773438 -46.992188 C 16.773438 -47.941406 16.773438 -48.734375 16.929688 -49.683594 L 79.746094 -49.683594 C 80.21875 -51.738281 80.378906 -52.847656 80.378906 -54.746094 C 80.378906 -68.828125 66.769531 -81.484375 48.574219 -81.484375 C 25.316406 -81.484375 4.429688 -62.65625 4.429688 -38.921875 C 4.429688 -15.820312 20.253906 1.582031 43.828125 1.582031 C 66.453125 1.582031 80.535156 -17.246094 88.605469 -35.601562 C 89.078125 -36.550781 87.8125 -37.023438 87.023438 -36.234375 Z M 46.515625 -79.425781 C 61.390625 -79.425781 67.402344 -69.933594 67.402344 -58.699219 C 67.402344 -53.953125 65.503906 -51.421875 59.648438 -51.421875 L 17.089844 -51.421875 C 19.144531 -70.410156 34.96875 -79.425781 46.515625 -79.425781 Z M 46.515625 -79.425781 "/></g></g></g><g fill="#000000" fill-opacity="1"><g transform="translate(519.035308, 133.539557)"><g><path d="M 16.929688 0 L 27.53125 0 C 32.121094 0 33.859375 0.476562 44.777344 0.476562 C 46.199219 0.476562 46.199219 -0.632812 44.777344 -0.632812 C 29.113281 -0.792969 28.480469 -5.0625 28.480469 -17.40625 L 28.480469 -55.851562 C 32.753906 -68.667969 41.929688 -74.207031 43.351562 -74.207031 L 43.667969 -74.207031 C 49.207031 -69.777344 55.378906 -66.769531 60.441406 -66.769531 C 64.554688 -66.769531 67.71875 -69.777344 67.71875 -73.097656 C 67.71875 -77.371094 62.496094 -81.484375 55.21875 -81.484375 C 45.882812 -81.484375 32.753906 -72.464844 28.003906 -59.015625 L 27.847656 -59.015625 C 28.003906 -66.136719 27.214844 -74.523438 23.734375 -81.484375 C 23.574219 -81.800781 23.101562 -81.800781 22.625 -81.484375 C 18.355469 -78.953125 12.023438 -75.945312 5.378906 -74.363281 C 4.746094 -74.207031 4.90625 -73.574219 5.378906 -73.257812 C 15.1875 -72.464844 16.140625 -64.398438 16.140625 -53.480469 L 16.140625 -17.40625 C 16.140625 -5.0625 15.664062 -0.792969 3.796875 -0.632812 C 2.847656 -0.632812 2.847656 0.476562 3.796875 0.476562 C 12.023438 0.476562 13.449219 0 16.929688 0 Z M 16.929688 0 "/></g></g></g><g fill="#000000" fill-opacity="1"><g transform="translate(583.891455, 133.539557)"><g/></g></g><g fill="#000000" fill-opacity="1"><g transform="translate(108.743368, 279.382766)"><g><path d="M 51.582031 0 L 61.546875 0 C 67.402344 0 70.410156 0.476562 85.28125 0.476562 C 86.863281 0.476562 86.707031 -0.792969 85.28125 -0.792969 C 67.246094 -0.792969 63.449219 -2.691406 63.449219 -25 L 63.449219 -109.015625 L 71.359375 -109.015625 C 88.921875 -109.015625 100.3125 -98.574219 109.964844 -67.402344 C 110.28125 -66.929688 111.074219 -66.769531 110.914062 -67.71875 L 100.945312 -116.769531 C 100.789062 -117.242188 100.3125 -117.085938 99.996094 -116.769531 C 96.832031 -111.390625 89.710938 -110.757812 77.53125 -110.757812 L 35.441406 -110.757812 C 22.625 -110.757812 16.296875 -111.390625 12.972656 -116.769531 C 12.65625 -117.085938 12.339844 -117.242188 12.183594 -116.769531 L 2.214844 -67.71875 C 2.058594 -66.769531 2.847656 -66.929688 3.164062 -67.402344 C 12.816406 -98.574219 24.207031 -109.015625 41.613281 -109.015625 L 49.683594 -109.015625 L 49.683594 -25 C 49.683594 -2.691406 45.882812 -0.792969 27.847656 -0.792969 C 26.421875 -0.792969 26.105469 0.476562 27.847656 0.476562 C 42.71875 0.476562 45.726562 0 51.582031 0 Z M 51.582031 0 "/></g></g></g><g fill="#000000" fill-opacity="1"><g transform="translate(217.912959, 279.382766)"><g><path d="M 16.929688 0 L 27.53125 0 C 32.121094 0 33.859375 0.476562 44.777344 0.476562 C 46.199219 0.476562 46.199219 -0.632812 44.777344 -0.632812 C 29.113281 -0.792969 28.480469 -5.0625 28.480469 -17.40625 L 28.480469 -55.851562 C 32.753906 -68.667969 41.929688 -74.207031 43.351562 -74.207031 L 43.667969 -74.207031 C 49.207031 -69.777344 55.378906 -66.769531 60.441406 -66.769531 C 64.554688 -66.769531 67.71875 -69.777344 67.71875 -73.097656 C 67.71875 -77.371094 62.5 -81.484375 55.21875 -81.484375 C 45.882812 -81.484375 32.753906 -72.464844 28.003906 -59.015625 L 27.847656 -59.015625 C 28.003906 -66.136719 27.214844 -74.523438 23.734375 -81.484375 C 23.574219 -81.800781 23.101562 -81.800781 22.625 -81.484375 C 18.355469 -78.953125 12.023438 -75.945312 5.378906 -74.363281 C 4.746094 -74.207031 4.90625 -73.574219 5.378906 -73.257812 C 15.1875 -72.464844 16.140625 -64.398438 16.140625 -53.480469 L 16.140625 -17.40625 C 16.140625 -5.0625 15.664062 -0.792969 3.796875 -0.632812 C 2.847656 -0.632812 2.847656 0.476562 3.796875 0.476562 C 12.023438 0.476562 13.449219 0 16.929688 0 Z M 16.929688 0 "/></g></g></g><g fill="#000000" fill-opacity="1"><g transform="translate(282.781763, 279.382766)"><g><path d="M 87.023438 -36.234375 C 80.0625 -18.671875 68.195312 -7.277344 50.632812 -7.277344 C 27.847656 -7.277344 16.773438 -25.949219 16.773438 -46.992188 C 16.773438 -47.941406 16.773438 -48.734375 16.929688 -49.683594 L 79.746094 -49.683594 C 80.21875 -51.738281 80.378906 -52.847656 80.378906 -54.746094 C 80.378906 -68.828125 66.769531 -81.484375 48.574219 -81.484375 C 25.316406 -81.484375 4.429688 -62.65625 4.429688 -38.921875 C 4.429688 -15.824219 20.253906 1.582031 43.828125 1.582031 C 66.453125 1.582031 80.535156 -17.246094 88.605469 -35.601562 C 89.078125 -36.550781 87.8125 -37.023438 87.023438 -36.234375 Z M 46.519531 -79.429688 C 61.390625 -79.429688 67.402344 -69.933594 67.402344 -58.699219 C 67.402344 -53.953125 65.503906 -51.421875 59.648438 -51.421875 L 17.089844 -51.421875 C 19.144531 -70.410156 34.96875 -79.429688 46.519531 -79.429688 Z M 46.519531 -79.429688 "/></g></g></g><g fill="#000000" fill-opacity="1"><g transform="translate(368.535228, 279.382766)"><g><path d="M 96.515625 -80.0625 C 90.34375 -80.0625 86.230469 -79.585938 83.699219 -79.585938 C 79.585938 -79.585938 72.941406 -80.0625 62.65625 -80.0625 C 61.546875 -80.0625 61.546875 -78.953125 62.65625 -78.953125 C 75.945312 -78.953125 79.113281 -68.984375 72.78125 -54.902344 L 53.320312 -10.917969 L 33.703125 -56.011719 C 25.949219 -73.730469 27.214844 -78.953125 39.398438 -78.953125 C 40.347656 -78.953125 40.347656 -80.0625 39.398438 -80.0625 C 29.429688 -80.0625 26.898438 -79.585938 23.101562 -79.585938 L 12.023438 -79.585938 C 9.175781 -79.585938 7.277344 -80.0625 0 -80.0625 C -0.632812 -80.0625 -0.632812 -78.953125 0 -78.953125 C 8.859375 -78.953125 12.65625 -73.730469 20.410156 -56.011719 L 45.566406 1.265625 L 49.683594 1.265625 L 74.839844 -54.902344 C 81.167969 -68.984375 88.445312 -78.953125 96.515625 -78.953125 C 97.148438 -78.953125 97.148438 -80.0625 96.515625 -80.0625 Z M 96.515625 -80.0625 "/></g></g></g><g fill="#000000" fill-opacity="1"><g transform="translate(460.617366, 279.382766)"><g><path d="M 21.203125 -95.09375 C 26.582031 -95.09375 29.902344 -98.574219 29.902344 -103.160156 C 29.902344 -107.90625 26.105469 -111.230469 21.203125 -111.230469 C 16.140625 -111.230469 12.65625 -107.589844 12.65625 -103.160156 C 12.65625 -98.414062 16.457031 -95.09375 21.203125 -95.09375 Z M 16.773438 0 L 27.6875 0 C 31.171875 0 32.59375 0.476562 40.820312 0.476562 C 41.769531 0.476562 41.769531 -0.632812 40.820312 -0.632812 C 28.953125 -0.792969 28.480469 -5.0625 28.480469 -17.40625 L 28.480469 -80.851562 C 28.480469 -81.328125 27.847656 -81.484375 27.371094 -81.484375 C 22.308594 -78.796875 14.398438 -75.628906 5.378906 -74.363281 C 4.746094 -74.363281 4.746094 -73.574219 5.222656 -73.257812 C 13.605469 -71.992188 16.140625 -70.410156 16.140625 -53.953125 L 16.140625 -17.40625 C 16.140625 -5.0625 15.664062 -0.792969 3.796875 -0.632812 C 2.847656 -0.632812 2.847656 0.476562 3.796875 0.476562 C 12.023438 0.476562 13.449219 0 16.773438 0 Z M 16.773438 0 "/></g></g></g><g fill="#000000" fill-opacity="1"><g transform="translate(501.120728, 279.382766)"><g><path d="M 79.746094 -79.113281 L 79.746094 -79.585938 L 40.820312 -79.585938 C 31.011719 -79.585938 20.253906 -79.902344 17.40625 -81.484375 C 17.089844 -81.644531 16.929688 -81.644531 16.773438 -81.167969 L 11.074219 -44.617188 C 11.074219 -44.144531 11.867188 -43.984375 12.023438 -44.617188 C 18.671875 -74.363281 31.171875 -77.847656 55.695312 -77.847656 L 64.398438 -77.847656 L 6.644531 -0.316406 L 6.644531 0 L 52.371094 0 C 61.707031 0 67.71875 0.949219 72.148438 2.691406 C 72.464844 2.847656 72.941406 3.007812 72.941406 2.53125 L 81.960938 -40.503906 C 82.117188 -41.296875 81.011719 -41.296875 80.695312 -40.503906 C 71.992188 -7.4375 60.597656 -1.742188 38.605469 -1.742188 L 22.152344 -1.742188 Z M 79.746094 -79.113281 "/></g></g></g><g fill="#000000" fill-opacity="1"><g transform="translate(584.342725, 279.382766)"><g><path d="M 46.519531 1.742188 C 71.515625 1.742188 91.136719 -17.246094 91.136719 -41.136719 C 91.136719 -65.347656 74.523438 -81.484375 49.523438 -81.484375 C 24.050781 -81.484375 4.429688 -62.5 4.429688 -38.289062 C 4.429688 -14.082031 21.042969 1.742188 46.519531 1.742188 Z M 49.683594 -0.316406 C 30.21875 -0.316406 18.355469 -22.625 18.355469 -44.460938 C 18.355469 -66.929688 31.171875 -78.796875 44.300781 -79.269531 C 64.714844 -80.21875 77.054688 -57.433594 77.054688 -35.125 C 77.054688 -12.183594 63.449219 -0.316406 49.683594 -0.316406 Z M 49.683594 -0.316406 "/></g></g></g></svg>